<svg id="Layer_1" data-name="Layer 1" xmlns="http://www.w3.org/2000/svg" viewBox="0 0 176.69 176.69"><defs><style>.cls-1{fill:#fff;}</style></defs><circle cx="88.34" cy="88.34" r="88.34" fill="#f1cbff"/><path class="cls-1" d="M50.28,147.33V32.61H89.67q21.36,0,33.33,7.92t12,23.6a27.52,27.52,0,0,1-3.86,14.57,23.55,23.55,0,0,1-11.89,9.61q10.08,2.3,14.89,9.18a27.11,27.11,0,0,1,4.8,15.88q0,16.78-11.26,25.37t-32.3,8.59ZM77,80.44H90.22q9.06-.16,13.56-3.51t4.49-9.81q0-7.32-4.57-10.67t-14-3.35H77Zm0,17.64v28.76H95.35q8.5,0,12.76-3.35t4.25-10.28q0-7.48-3.66-11.3T96.84,98.08Z" transform="translate(-2.73 -3.37)"/></svg>